<svg width="107" height="95" viewBox="0 0 107 95" fill="none" xmlns="http://www.w3.org/2000/svg">
<path d="M106.248 47.7527C106.248 40.7646 97.4976 34.1421 84.0823 30.0353C87.1781 16.3601 85.8022 5.48025 79.7395 1.99696C78.342 1.1799 76.7081 0.792864 74.9237 0.792864V5.58776C75.9127 5.58776 76.7081 5.78127 77.3746 6.1468C80.2984 7.82394 81.5669 14.21 80.5779 22.4236C80.3415 24.4448 79.9545 26.5735 79.4815 28.7452C75.2677 27.7131 70.6669 26.9175 65.8296 26.4015C62.9273 22.4236 59.9174 18.8113 56.8861 15.6506C63.8947 9.13555 70.4734 5.56626 74.9452 5.56626V0.771362C69.033 0.771362 61.2933 4.98571 53.4677 12.2963C45.6421 5.02871 37.9024 0.85737 31.9902 0.85737V5.65226C36.4405 5.65226 43.0407 9.20005 50.0494 15.6721C47.0395 18.8328 44.0297 22.4236 41.1703 26.4015C36.3115 26.9175 31.7107 27.7131 27.4969 28.7667C27.0025 26.6165 26.637 24.5308 26.379 22.5311C25.3685 14.3175 26.6155 7.93145 29.5178 6.23281C30.1628 5.84578 31.0013 5.67377 31.9902 5.67377V0.878871C30.1843 0.878871 28.5504 1.2659 27.1314 2.08297C21.0902 5.56626 19.7358 16.4246 22.8531 30.0568C9.48077 34.1851 0.773682 40.7861 0.773682 47.7527C0.773682 54.7408 9.52377 61.3633 22.9391 65.4702C19.8433 79.1453 21.2192 90.0252 27.2819 93.5085C28.6794 94.3255 30.3133 94.7126 32.1192 94.7126C38.0314 94.7126 45.7711 90.4982 53.5967 83.1876C61.4223 90.4552 69.162 94.6266 75.0742 94.6266C76.8801 94.6266 78.514 94.2395 79.933 93.4225C85.9742 89.9392 87.3286 79.0808 84.2113 65.4487C97.5406 61.3418 106.248 54.7193 106.248 47.7527ZM78.256 33.411C77.4606 36.1848 76.4716 39.0445 75.3537 41.9042C74.4722 40.1841 73.5478 38.464 72.5373 36.7438C71.5484 35.0237 70.4949 33.3465 69.4415 31.7124C72.4943 32.1639 75.4397 32.723 78.256 33.411ZM68.4095 56.3104C66.7326 59.2132 65.0127 61.9654 63.2283 64.5241C60.0249 64.8036 56.7786 64.9541 53.5107 64.9541C50.2644 64.9541 47.018 64.8036 43.8362 64.5456C42.0517 61.9869 40.3103 59.2562 38.6334 56.3749C36.9995 53.5582 35.5161 50.6985 34.1616 47.8172C35.4946 44.936 36.9995 42.0547 38.6119 39.238C40.2888 36.3353 42.0087 33.5831 43.7932 31.0243C46.9965 30.7448 50.2429 30.5943 53.5107 30.5943C56.7571 30.5943 60.0034 30.7448 63.1853 31.0028C64.9697 33.5616 66.7111 36.2923 68.388 39.1735C70.0219 41.9902 71.5054 44.85 72.8598 47.7312C71.5054 50.6124 70.0219 53.4937 68.4095 56.3104ZM75.3537 53.5152C76.5146 56.3964 77.5036 59.2777 78.3205 62.0729C75.5042 62.761 72.5373 63.3415 69.463 63.793C70.5164 62.1374 71.5699 60.4388 72.5588 58.6971C73.5478 56.977 74.4722 55.2353 75.3537 53.5152ZM53.5537 76.4576C51.5543 74.3934 49.5549 72.0927 47.577 69.577C49.5119 69.663 51.4898 69.7275 53.4892 69.7275C55.5101 69.7275 57.5095 69.6845 59.4659 69.577C57.531 72.0927 55.5316 74.3934 53.5537 76.4576ZM37.5585 63.793C34.5056 63.3415 31.5602 62.7825 28.7439 62.0944C29.5393 59.3207 30.5283 56.4609 31.6462 53.6012C32.5277 55.3213 33.4521 57.0415 34.4626 58.7616C35.4731 60.4818 36.505 62.1589 37.5585 63.793ZM53.4462 19.0479C55.4456 21.112 57.445 23.4127 59.4229 25.9284C57.488 25.8424 55.5101 25.7779 53.5107 25.7779C51.4898 25.7779 49.4904 25.8209 47.534 25.9284C49.4689 23.4127 51.4683 21.112 53.4462 19.0479ZM37.537 31.7124C36.4835 33.368 35.4301 35.0667 34.4411 36.8083C33.4521 38.5285 32.5277 40.2486 31.6462 41.9687C30.4853 39.0875 29.4963 36.2063 28.6794 33.411C31.4957 32.7445 34.4626 32.1639 37.537 31.7124ZM18.0804 58.6326C10.4697 55.3858 5.54646 51.1285 5.54646 47.7527C5.54646 44.3769 10.4697 40.0981 18.0804 36.8728C19.9293 36.0773 21.9502 35.3677 24.0356 34.7011C25.261 38.9155 26.8735 43.3019 28.8729 47.7957C26.895 52.2681 25.304 56.6329 24.1001 60.8258C21.9717 60.1592 19.9508 59.4282 18.0804 58.6326ZM29.6468 89.3586C26.723 87.6815 25.4545 81.2955 26.4435 73.0818C26.68 71.0606 27.067 68.932 27.5399 66.7603C31.7537 67.7924 36.3545 68.5879 41.1918 69.104C44.0942 73.0818 47.104 76.6941 50.1354 79.8549C43.1267 86.3699 36.548 89.9392 32.0762 89.9392C31.1088 89.9177 30.2918 89.7242 29.6468 89.3586ZM80.6424 72.9743C81.6529 81.188 80.4059 87.574 77.5036 89.2726C76.8586 89.6597 76.0201 89.8317 75.0312 89.8317C70.5809 89.8317 63.9807 86.2839 56.972 79.8119C59.9819 76.6511 62.9918 73.0603 65.8511 69.0825C70.7099 68.5664 75.3107 67.7709 79.5245 66.7173C80.019 68.889 80.4059 70.9746 80.6424 72.9743ZM88.9195 58.6326C87.0706 59.4282 85.0497 60.1377 82.9643 60.8043C81.7389 56.5899 80.1265 52.2036 78.1271 47.7097C80.105 43.2373 81.6959 38.8725 82.8998 34.6796C85.0282 35.3462 87.0491 36.0773 88.941 36.8728C96.5517 40.1196 101.475 44.3769 101.475 47.7527C101.453 51.1285 96.5302 55.4073 88.9195 58.6326Z" fill="#61DAFB"/>
<path d="M53.4891 57.579C58.9153 57.579 63.3141 53.1796 63.3141 47.7527C63.3141 42.3258 58.9153 37.9264 53.4891 37.9264C48.0629 37.9264 43.6641 42.3258 43.6641 47.7527C43.6641 53.1796 48.0629 57.579 53.4891 57.579Z" fill="#61DAFB"/>
</svg>
