<svg width="136" height="136" viewBox="0 0 136 136" fill="none" xmlns="http://www.w3.org/2000/svg">
<path d="M108.375 95.6252C114.541 95.6266 120.499 93.3924 125.144 89.3368C129.789 85.2812 132.806 79.6792 133.636 73.5691C134.466 67.4589 133.053 61.255 129.659 56.1071C126.264 50.9593 121.118 47.2167 115.175 45.5729C117.515 39.1537 117.39 32.0949 114.824 25.7626C112.259 19.4303 107.436 14.2747 101.288 11.2938C95.1406 8.31279 88.1058 7.71835 81.5451 9.62548C74.9845 11.5326 69.3646 15.8057 65.7731 21.6178C62.1757 20.9977 58.4866 21.1629 54.9589 22.1019C51.4313 23.041 48.1484 24.7318 45.3353 27.0585C42.5223 29.3851 40.2456 32.2925 38.6614 35.5813C37.0771 38.8702 36.2228 42.4627 36.157 46.1127C32.6545 44.8609 28.9206 44.3905 25.2171 44.7345C21.5136 45.0784 17.9301 46.2284 14.7181 48.1038C11.506 49.9791 8.74308 52.5344 6.62304 55.5905C4.503 58.6466 3.07718 62.1295 2.44556 65.7949C1.81394 69.4604 1.99182 73.2196 2.96672 76.809C3.94163 80.3984 5.68995 83.7311 8.08909 86.5734C10.4882 89.4156 13.4801 91.6986 16.8549 93.2623C20.2297 94.826 23.9057 95.6325 27.6251 95.6252" stroke="white" stroke-width="2" stroke-linejoin="round"/>
<path d="M21.25 57.3752V87.1252" stroke="white" stroke-width="2" stroke-linejoin="round"/>
<path d="M34 57.3752V87.1252" stroke="white" stroke-width="2" stroke-linejoin="round"/>
<path d="M21.25 72.2502H34" stroke="white" stroke-width="2" stroke-linejoin="round"/>
<path d="M21.25 72.2502H34" stroke="white" stroke-width="2" stroke-linejoin="round"/>
<path d="M40.375 59.5002H57.375" stroke="white" stroke-width="2" stroke-linejoin="round"/>
<path d="M48.875 59.5002V87.1252" stroke="white" stroke-width="2" stroke-linejoin="round"/>
<path d="M63.75 87.1252V59.5002L70.125 76.5002L76.5 59.5002V87.1252" stroke="white" stroke-width="2" stroke-linejoin="round"/>
<path d="M85 57.3752V80.7502C84.9881 81.3116 85.0899 81.8696 85.2993 82.3906C85.5086 82.9116 85.8213 83.3849 86.2183 83.7819C86.6153 84.1789 87.0886 84.4916 87.6096 84.7009C88.1306 84.9103 88.6886 85.0121 89.25 85.0002H97.75" stroke="white" stroke-width="2" stroke-linejoin="round"/>
<path d="M95.625 110.5C93.9439 110.5 92.3005 110.002 90.9027 109.068C89.5048 108.134 88.4154 106.806 87.772 105.253C87.1287 103.7 86.9604 101.991 87.2883 100.342C87.6163 98.6931 88.4259 97.1786 89.6146 95.9898C90.8033 94.8011 92.3179 93.9915 93.9667 93.6636C95.6156 93.3356 97.3246 93.5039 98.8778 94.1473C100.431 94.7906 101.759 95.8801 102.692 97.2779C103.626 98.6757 104.125 100.319 104.125 102" stroke="white" stroke-width="2" stroke-linejoin="round"/>
<path d="M95.625 110.5C97.3061 110.5 98.9495 110.999 100.347 111.933C101.745 112.867 102.835 114.194 103.478 115.747C104.121 117.301 104.29 119.01 103.962 120.659C103.634 122.307 102.824 123.822 101.635 125.011C100.447 126.199 98.9321 127.009 97.2833 127.337C95.6344 127.665 93.9254 127.497 92.3722 126.853C90.819 126.21 89.4915 125.12 88.5575 123.723C87.6235 122.325 87.125 120.681 87.125 119" stroke="white" stroke-width="2" stroke-linejoin="round"/>
<path d="M70.125 110.5C68.4439 110.5 66.8005 110.002 65.4027 109.068C64.0048 108.134 62.9154 106.806 62.272 105.253C61.6287 103.7 61.4604 101.991 61.7883 100.342C62.1163 98.6931 62.9259 97.1786 64.1146 95.9898C65.3033 94.8011 66.8179 93.9915 68.4667 93.6636C70.1156 93.3356 71.8246 93.5039 73.3778 94.1473C74.931 94.7906 76.2585 95.8801 77.1925 97.2779C78.1265 98.6757 78.625 100.319 78.625 102" stroke="white" stroke-width="2" stroke-linejoin="round"/>
<path d="M70.125 110.5C71.8061 110.5 73.4495 110.999 74.8473 111.933C76.2452 112.867 77.3346 114.194 77.978 115.747C78.6213 117.301 78.7896 119.01 78.4617 120.659C78.1337 122.307 77.3241 123.822 76.1354 125.011C74.9467 126.199 73.4321 127.009 71.7833 127.337C70.1344 127.665 68.4254 127.497 66.8722 126.853C65.319 126.21 63.9915 125.12 63.0575 123.723C62.1235 122.325 61.625 120.681 61.625 119" stroke="white" stroke-width="2" stroke-linejoin="round"/>
<path d="M53.125 102C53.125 99.7459 52.2295 97.5839 50.6354 95.9898C49.0413 94.3958 46.8793 93.5002 44.625 93.5002C42.3707 93.5002 40.2087 94.3958 38.6146 95.9898C37.0205 97.5839 36.125 99.7459 36.125 102V119C36.125 121.255 37.0205 123.417 38.6146 125.011C40.2087 126.605 42.3707 127.5 44.625 127.5C46.8793 127.5 49.0413 126.605 50.6354 125.011C52.2295 123.417 53.125 121.255 53.125 119" stroke="white" stroke-width="2" stroke-linejoin="round"/>
<path d="M91.375 70.1252H95.625" stroke="white" stroke-width="2" stroke-linejoin="round"/>
<path d="M99.875 70.1252H104.125" stroke="white" stroke-width="2" stroke-linejoin="round"/>
<path d="M25.5 110.5H29.75" stroke="white" stroke-width="2" stroke-linejoin="round"/>
<path d="M17 110.5H21.25" stroke="white" stroke-width="2" stroke-linejoin="round"/>
<path d="M76.5002 23.375V44.625C76.5002 44.625 76.5002 53.125 68.0002 53.125H63.7502C62.9081 53.143 62.0711 52.9903 61.2895 52.6763C60.5079 52.3623 59.798 51.8934 59.2024 51.2978C58.6068 50.7022 58.1379 49.9923 57.8239 49.2107C57.5099 48.4291 57.3572 47.5921 57.3752 46.75V42.5" stroke="white" stroke-width="2" stroke-linejoin="round"/>
<path d="M95.625 36.125C93.9439 36.125 92.3005 35.6265 90.9027 34.6925C89.5048 33.7585 88.4154 32.431 87.772 30.8778C87.1287 29.3246 86.9604 27.6156 87.2883 25.9667C87.6163 24.3179 88.4259 22.8033 89.6146 21.6146C90.8033 20.4259 92.3179 19.6163 93.9667 19.2883C95.6156 18.9604 97.3246 19.1287 98.8778 19.772C100.431 20.4154 101.759 21.5048 102.692 22.9027C103.626 24.3005 104.125 25.9439 104.125 27.625" stroke="white" stroke-width="2" stroke-linejoin="round"/>
<path d="M95.625 36.125C97.3061 36.125 98.9495 36.6235 100.347 37.5575C101.745 38.4915 102.835 39.819 103.478 41.3722C104.121 42.9254 104.29 44.6344 103.962 46.2833C103.634 47.9321 102.824 49.4467 101.635 50.6354C100.447 51.8242 98.9321 52.6337 97.2833 52.9617C95.6344 53.2897 93.9254 53.1213 92.3722 52.478C90.819 51.8346 89.4915 50.7452 88.5575 49.3473C87.6235 47.9495 87.125 46.3061 87.125 44.625" stroke="white" stroke-width="2" stroke-linejoin="round"/>
<path d="M63.75 34H68" stroke="white" stroke-width="2" stroke-linejoin="round"/>
<path d="M55.25 34H59.5" stroke="white" stroke-width="2" stroke-linejoin="round"/>
</svg>
