<svg  viewBox="0 0 141 100" fill="none" xmlns="http://www.w3.org/2000/svg">
<path d="M111.217 49.4974C111.217 44.0719 104.424 38.9302 94.008 35.7417C96.4117 25.1243 95.3434 16.6772 90.6363 13.9728C89.5513 13.3384 88.2828 13.0379 86.8973 13.0379V16.7607C87.6652 16.7607 88.2828 16.9109 88.8002 17.1947C91.0703 18.4968 92.0551 23.4549 91.2873 29.832C91.1037 31.4012 90.8032 33.0539 90.436 34.74C87.1644 33.9387 83.5924 33.321 79.8367 32.9204C77.5833 29.832 75.2465 27.0274 72.893 24.5734C78.3345 19.5152 83.4422 16.744 86.914 16.744V13.0212C82.3238 13.0212 76.3148 16.2932 70.239 21.9692C64.1632 16.3266 58.1541 13.088 53.5639 13.088V16.8108C57.0191 16.8108 62.1435 19.5653 67.585 24.5901C65.2481 27.0441 62.9113 29.832 60.6913 32.9204C56.9189 33.321 53.3469 33.9387 50.0753 34.7567C49.6914 33.0873 49.4076 31.468 49.2073 29.9155C48.4228 23.5384 49.391 18.5803 51.6443 17.2615C52.1451 16.961 52.7961 16.8275 53.5639 16.8275V13.1047C52.1618 13.1047 50.8932 13.4052 49.7916 14.0396C45.1012 16.744 44.0496 25.1744 46.4699 35.7584C36.0876 38.9636 29.3275 44.0886 29.3275 49.4974C29.3275 54.923 36.121 60.0647 46.5367 63.2532C44.133 73.8706 45.2013 82.3177 49.9084 85.0221C50.9934 85.6565 52.2619 85.957 53.664 85.957C58.2543 85.957 64.2633 82.685 70.3391 77.009C76.4149 82.6516 82.424 85.8902 87.0142 85.8902C88.4163 85.8902 89.6849 85.5897 90.7865 84.9553C95.4769 82.2509 96.5285 73.8205 94.1082 63.2365C104.457 60.048 111.217 54.9063 111.217 49.4974ZM89.4846 38.3626C88.867 40.5161 88.0991 42.7364 87.2312 44.9567C86.5468 43.6212 85.8291 42.2857 85.0446 40.9502C84.2767 39.6147 83.4588 38.3125 82.6409 37.0438C85.0112 37.3944 87.2979 37.8284 89.4846 38.3626ZM81.8397 56.1416C80.5378 58.3953 79.2024 60.5321 77.817 62.5187C75.33 62.7357 72.8095 62.8526 70.2724 62.8526C67.7519 62.8526 65.2314 62.7357 62.7611 62.5354C61.3756 60.5488 60.0236 58.4287 58.7216 56.1917C57.4531 54.0048 56.3013 51.7845 55.2498 49.5475C56.2847 47.3105 57.4531 45.0736 58.705 42.8867C60.0069 40.633 61.3423 38.4962 62.7277 36.5096C65.2147 36.2926 67.7352 36.1757 70.2724 36.1757C72.7928 36.1757 75.3133 36.2926 77.7836 36.4929C79.1691 38.4795 80.5211 40.5996 81.8231 42.8366C83.0916 45.0235 84.2434 47.2438 85.2949 49.4808C84.2434 51.7177 83.0916 53.9547 81.8397 56.1416ZM87.2312 53.9714C88.1325 56.2084 88.9004 58.4454 89.5346 60.6156C87.348 61.1498 85.0446 61.6005 82.6576 61.9511C83.4755 60.6657 84.2934 59.3469 85.0613 57.9947C85.8291 56.6591 86.5468 55.3069 87.2312 53.9714ZM70.3057 71.7838C68.7534 70.1812 67.2011 68.395 65.6654 66.4418C67.1677 66.5085 68.7033 66.5586 70.2557 66.5586C71.8247 66.5586 73.377 66.5252 74.896 66.4418C73.3937 68.395 71.8414 70.1812 70.3057 71.7838ZM57.8871 61.9511C55.5168 61.6005 53.2301 61.1665 51.0434 60.6323C51.661 58.4788 52.4289 56.2585 53.2968 54.0382C53.9812 55.3737 54.6989 56.7092 55.4834 58.0447C56.268 59.3802 57.0692 60.6824 57.8871 61.9511ZM70.2223 27.2111C71.7746 28.8137 73.3269 30.5999 74.8626 32.5531C73.3603 32.4863 71.8247 32.4363 70.2724 32.4363C68.7033 32.4363 67.151 32.4697 65.632 32.5531C67.1343 30.5999 68.6866 28.8137 70.2223 27.2111ZM57.8704 37.0438C57.0525 38.3292 56.2346 39.648 55.4668 41.0002C54.6989 42.3358 53.9812 43.6713 53.2968 45.0068C52.3955 42.7698 51.6277 40.5328 50.9934 38.3626C53.18 37.8451 55.4834 37.3944 57.8704 37.0438ZM42.7643 57.9446C36.8554 55.4238 33.033 52.1184 33.033 49.4974C33.033 46.8765 36.8554 43.5544 42.7643 41.0503C44.1998 40.4327 45.7688 39.8818 47.3879 39.3642C48.3394 42.6362 49.5913 46.0418 51.1436 49.5308C49.6079 53.0032 48.3728 56.392 47.438 59.6473C45.7855 59.1298 44.2165 58.5622 42.7643 57.9446ZM51.7445 81.8002C49.4744 80.4981 48.4896 75.54 49.2574 69.1629C49.441 67.5937 49.7415 65.941 50.1087 64.2549C53.3803 65.0562 56.9523 65.6739 60.708 66.0745C62.9614 69.1629 65.2982 71.9675 67.6517 74.4215C62.2102 79.4797 57.1025 82.2509 53.6307 82.2509C52.8795 82.2342 52.2452 82.084 51.7445 81.8002ZM91.3374 69.0794C92.1219 75.4565 91.1537 80.4146 88.9004 81.7334C88.3996 82.0339 87.7486 82.1674 86.9808 82.1674C83.5256 82.1674 78.4012 79.4129 72.9597 74.3881C75.2966 71.9341 77.6334 69.1462 79.8534 66.0578C83.6258 65.6572 87.1978 65.0395 90.4694 64.2215C90.8533 65.9076 91.1537 67.5269 91.3374 69.0794ZM97.7637 57.9446C96.3282 58.5622 94.7592 59.1131 93.1401 59.6307C92.1886 56.3587 90.9368 52.9531 89.3844 49.4641C90.9201 45.9917 92.1553 42.6029 93.09 39.3475C94.7425 39.8651 96.3115 40.4327 97.7804 41.0503C103.689 43.5711 107.512 46.8765 107.512 49.4974C107.495 52.1184 103.673 55.4405 97.7637 57.9446Z" fill="#61DAFB"/>
<path d="M70.2557 57.1265C74.4686 57.1265 77.8838 53.7109 77.8838 49.4974C77.8838 45.284 74.4686 41.8683 70.2557 41.8683C66.0428 41.8683 62.6275 45.284 62.6275 49.4974C62.6275 53.7109 66.0428 57.1265 70.2557 57.1265Z" fill="#61DAFB"/>
</svg>
