<?xml version="1.0" encoding="utf-8"?>
<svg viewBox="157.761 64.687 101.8 90.9" xmlns="http://www.w3.org/2000/svg">
  <g fill="#61DAFB" transform="matrix(1, 0, 0, 1, 144.661423, 62.586521)">
    <circle cx="64" cy="47.5" r="9.3" style="fill: white;"/>
    <path d="M 64 81.7 C 71.3 88.8 78.5 93 84.3 93 C 86.2 93 88 92.6 89.5 91.7 C 94.7 88.7 96.6 81.2 94.8 70.5 C 94.5 68.6 94.1 66.7 93.6 64.7 C 95.6 64.1 97.4 63.5 99.2 62.9 C 109.3 59 114.9 53.6 114.9 47.7 C 114.9 41.7 109.3 36.3 99.2 32.5 C 97.4 31.8 95.6 31.2 93.6 30.7 C 94.1 28.7 94.5 26.8 94.8 24.9 C 96.5 14 94.6 6.4 89.4 3.4 C 87.9 2.5 86.1 2.1 84.2 2.1 C 78.5 2.1 71.2 6.3 63.9 13.4 C 56.7 6.3 49.5 2.1 43.7 2.1 C 41.8 2.1 40 2.5 38.5 3.4 C 33.3 6.4 31.4 13.9 33.2 24.6 C 33.5 26.5 33.9 28.4 34.4 30.4 C 32.4 31 30.6 31.6 28.8 32.2 C 18.7 36.1 13.1 41.5 13.1 47.4 C 13.1 53.4 18.7 58.8 28.8 62.6 C 30.6 63.3 32.4 63.9 34.4 64.4 C 33.9 66.4 33.5 68.3 33.2 70.2 C 31.5 80.9 33.4 88.5 38.5 91.4 C 40 92.3 41.8 92.7 43.7 92.7 C 49.5 92.9 56.7 88.7 64 81.7 Z M 58.4 68.2 C 60.2 68.3 62.1 68.3 64 68.3 C 65.9 68.3 67.8 68.3 69.6 68.2 C 67.8 70.6 65.9 72.8 64 74.9 C 62.1 72.8 60.2 70.6 58.4 68.2 Z M 46 57.9 C 47 59.6 47.9 61.2 49 62.8 C 45.9 62.4 43 61.9 40.2 61.3 C 41.1 58.6 42.1 55.8 43.3 53 C 44.1 54.6 45 56.3 46 57.9 Z M 40.2 33.8 C 43 33.2 45.9 32.7 49 32.3 C 48 33.9 47 35.5 46 37.2 C 45 38.9 44.1 40.5 43.3 42.2 C 42 39.3 41 36.5 40.2 33.8 Z M 45.7 47.5 C 47 44.8 48.4 42.1 50 39.4 C 51.5 36.8 53.2 34.2 54.9 31.6 C 57.9 31.4 60.9 31.3 64 31.3 C 67.2 31.3 70.2 31.4 73.1 31.6 C 74.9 34.2 76.5 36.8 78 39.4 C 79.6 42.1 81 44.8 82.3 47.5 C 81 50.2 79.6 52.9 78 55.6 C 76.5 58.2 74.8 60.8 73.1 63.4 C 70.1 63.6 67.1 63.7 64 63.7 C 60.8 63.7 57.8 63.6 54.9 63.4 C 53.1 60.8 51.5 58.2 50 55.6 C 48.4 52.9 47 50.2 45.7 47.5 Z M 84.8 42.1 L 82.1 37.1 C 81.1 35.4 80.2 33.8 79.1 32.2 C 82.2 32.6 85.1 33.1 87.9 33.7 C 87 36.5 86 39.3 84.8 42.1 Z M 84.8 52.9 C 86 55.7 87 58.5 87.9 61.2 C 85.1 61.8 82.2 62.3 79.1 62.7 C 80.1 61.1 81.1 59.5 82.1 57.8 C 83 56.3 83.9 54.6 84.8 52.9 Z M 87.1 87.6 C 86.3 88.1 85.3 88.3 84.2 88.3 C 79.3 88.3 73.2 84.3 67.2 78.3 C 70.1 75.2 72.9 71.7 75.7 67.8 C 80.4 67.4 84.9 66.7 89.1 65.7 C 89.6 67.5 89.9 69.3 90.2 71.1 C 91.6 79.6 90.5 85.7 87.1 87.6 Z M 92.3 34.9 C 103.5 38.1 110.2 43 110.2 47.5 C 110.2 51.4 105.6 55.3 97.5 58.4 C 95.9 59 94.1 59.6 92.3 60.1 C 91 56 89.4 51.8 87.4 47.5 C 89.4 43.2 91.1 39 92.3 34.9 Z M 84.3 6.7 C 85.4 6.7 86.3 6.9 87.2 7.4 C 90.5 9.3 91.7 15.3 90.3 23.9 C 90 25.6 89.6 27.4 89.2 29.3 C 85 28.4 80.5 27.7 75.8 27.2 C 73.1 23.3 70.2 19.8 67.3 16.7 C 73.3 10.8 79.4 6.7 84.3 6.7 Z M 69.6 26.8 C 67.8 26.7 65.9 26.7 64 26.7 C 62.1 26.7 60.2 26.7 58.4 26.8 C 60.2 24.4 62.1 22.2 64 20.1 C 65.9 22.2 67.8 24.5 69.6 26.8 Z M 40.9 7.4 C 41.7 6.9 42.7 6.7 43.8 6.7 C 48.7 6.7 54.8 10.7 60.8 16.7 C 57.9 19.8 55.1 23.3 52.3 27.2 C 47.6 27.6 43.1 28.3 38.9 29.3 C 38.4 27.5 38.1 25.7 37.8 23.9 C 36.4 15.4 37.5 9.4 40.9 7.4 Z M 35.7 60.1 C 24.5 56.9 17.8 52 17.8 47.5 C 17.8 43.6 22.4 39.7 30.5 36.6 C 32.1 36 33.9 35.4 35.7 34.9 C 37 39 38.6 43.2 40.6 47.5 C 38.6 51.8 36.9 56.1 35.7 60.1 Z M 37.8 71.1 C 38.1 69.4 38.5 67.6 38.9 65.7 C 43.1 66.6 47.6 67.3 52.3 67.8 C 55 71.7 57.9 75.2 60.8 78.3 C 54.8 84.2 48.7 88.3 43.8 88.3 C 42.7 88.3 41.8 88.1 40.9 87.6 C 37.5 85.7 36.4 79.6 37.8 71.1 Z" style="fill: white;"/>
  </g>
</svg>