<svg width="134" height="100" viewBox="0 0 134 100" fill="none" xmlns="http://www.w3.org/2000/svg">
<path d="M94.7477 75.5677C94.3226 75.2664 94.3933 74.2927 95.7915 71.2601C96.3405 70.0694 97.593 68.0648 99.7704 66.149C100.023 66.9369 100.177 67.6924 100.172 68.3958C100.144 73.0879 96.7813 74.8402 94.7477 75.5677ZM76.8488 79.6298C76.2788 79.9267 75.7562 80.1132 75.5133 79.9693C75.3352 79.8634 75.7484 79.4725 75.7484 79.4725C75.7484 79.4725 78.6549 76.36 79.7995 74.9425C80.4653 74.1184 81.2374 73.14 82.0787 72.0458C82.0855 72.1551 82.0892 72.2635 82.0892 72.3707C82.0806 76.0999 78.4623 78.6176 76.8488 79.6298ZM53.6145 68.5928C52.27 71.8561 49.456 80.2046 47.7434 79.7571C46.2732 79.3731 45.3778 73.0268 47.4498 66.7811C48.4927 63.6371 50.7205 59.8804 52.0293 58.4223C54.1362 56.076 56.4561 55.3086 57.0197 56.2599C57.7382 57.472 54.4574 66.5472 53.6145 68.5928ZM25.492 87.6264C21.6318 91.819 16.2387 93.4035 13.926 92.069C11.4288 90.6274 12.4179 84.4549 17.1551 80.0058C20.0424 77.2945 23.7698 74.7971 26.2425 73.2589C26.8052 72.9218 27.632 72.4267 28.6367 71.8273C28.8033 71.7328 28.8972 71.6805 28.8972 71.6805L28.8935 71.6741C29.0875 71.5587 29.2862 71.4401 29.4914 71.3181C31.2151 77.6508 29.5438 83.226 25.492 87.6264ZM115.322 57.4759C110.639 57.5005 106.582 58.6198 103.182 60.2884C101.938 57.8173 100.679 55.6434 100.468 54.027C100.221 52.14 99.9353 51.0144 100.233 48.7664C100.531 46.5185 101.838 43.3354 101.819 43.0969C101.8 42.8585 101.526 41.7133 98.8245 41.6939C96.123 41.6746 93.8123 42.2111 93.5405 42.9213C93.2685 43.6315 92.7484 45.2297 92.4247 46.896C91.9516 49.3346 87.0314 58.0317 84.2378 62.5816C83.3241 60.8059 82.5471 59.2401 82.3852 58.0019C82.1386 56.115 81.8524 54.9893 82.1503 52.7411C82.4485 50.4934 83.7549 47.3098 83.7358 47.0714C83.7167 46.8329 83.443 45.688 80.7415 45.6685C78.0401 45.6493 75.7293 46.1858 75.4576 46.896C75.1855 47.6062 74.8952 49.2655 74.3418 50.8707C73.7885 52.4761 67.2481 66.9839 65.5352 70.7443C64.6624 72.6603 63.9028 74.1995 63.3666 75.2509C63.3651 75.2482 63.3631 75.245 63.3631 75.245C63.3631 75.245 63.3301 75.3149 63.2731 75.433C62.8142 76.3278 62.5409 76.8229 62.5409 76.8229C62.5409 76.8229 62.5439 76.8297 62.549 76.8414C62.185 77.4985 61.7948 78.1088 61.6016 78.1088C61.4665 78.1088 61.1962 76.3597 61.6605 73.9588C62.6337 68.9262 64.9716 61.0777 64.9483 60.8074C64.9361 60.6688 65.3828 59.3013 63.4216 58.5862C61.5152 57.8916 60.8364 59.0502 60.6624 59.0538C60.4939 59.0575 60.3686 59.4632 60.3686 59.4632C60.3686 59.4632 62.4925 50.6371 56.3176 50.6371C52.4571 50.6371 47.1078 54.8414 44.4727 58.6525C42.8097 59.5555 39.2511 61.4895 35.4755 63.5548C34.0254 64.3478 32.5456 65.1585 31.1424 65.9282C31.047 65.8229 30.9518 65.7175 30.8537 65.6132C23.3663 57.6602 9.52493 52.0351 10.1123 41.3432C10.3258 37.4562 11.6829 27.2214 36.7084 14.8064C57.2083 4.63638 73.6194 7.43496 76.4556 13.6374C80.5072 22.4985 67.6847 38.9674 46.3955 41.3432C38.2841 42.2484 34.0131 39.1188 32.9507 37.953C31.8325 36.726 31.6657 36.6707 31.2481 36.9009C30.568 37.2762 30.9991 38.3595 31.2481 39.0051C31.8839 40.6522 34.4921 43.5728 38.9392 45.0256C42.8513 46.3037 52.3747 47.0058 63.8913 42.5706C76.7905 37.6033 86.8629 23.7849 83.9043 12.2345C80.8956 0.487083 61.331 -3.37482 42.8144 3.17461C31.7941 7.07233 19.8642 13.19 11.2866 21.1775C1.08765 30.6751 -0.538749 38.9413 0.131398 42.3953C2.51261 54.6678 19.5033 62.6598 26.3071 68.5828C25.9712 68.7672 25.6564 68.9403 25.3699 69.0977C21.9587 70.7776 9.00729 77.5255 5.76768 84.6554C2.09292 92.7428 6.35271 98.5453 9.17291 99.3265C17.9106 101.747 26.8771 97.3933 31.6958 90.2377C36.5135 83.0837 35.9251 73.7686 33.7139 69.5166C33.6865 69.4637 33.6562 69.4121 33.6281 69.3597C34.5087 68.8407 35.407 68.313 36.2972 67.7925C38.0333 66.7776 39.7374 65.8307 41.2164 65.0295C40.3891 67.2869 39.7829 69.9927 39.4676 73.9004C39.0972 78.4913 40.987 84.4252 43.4599 86.7598C44.5488 87.7876 45.8588 87.8118 46.689 87.8118C49.5666 87.8118 50.8798 85.4284 52.3253 82.6096C54.0986 79.1525 55.6718 75.1279 55.6718 75.1279C55.6718 75.1279 53.6971 85.9997 59.0772 85.9997C61.0375 85.9997 63.0094 83.469 63.8876 82.1787C63.8901 82.1929 63.8913 82.2004 63.8913 82.2004C63.8913 82.2004 63.9424 82.1164 64.0422 81.9479C64.2458 81.6381 64.361 81.4408 64.361 81.4408C64.361 81.4408 64.3649 81.4204 64.3712 81.3848C65.1592 80.0226 66.9068 76.9172 69.5278 71.7961C72.9139 65.1797 76.1618 56.8911 76.1618 56.8911C76.1618 56.8911 76.464 58.9177 77.4535 62.2686C78.0357 64.2404 79.2725 66.4199 80.2484 68.51C79.4629 69.595 78.98 70.2182 78.98 70.2182C78.98 70.2182 78.9846 70.2297 78.9932 70.2506C78.3655 71.0801 77.6617 71.9754 76.9253 72.8483C74.2528 76.0173 71.0694 79.6361 70.643 80.6807C70.1411 81.9114 70.2597 82.8166 71.2301 83.5449C71.9391 84.0767 73.2011 84.1592 74.5179 84.0708C76.9197 83.9102 78.6096 83.3171 79.4433 82.9559C80.743 82.4983 82.2565 81.7786 83.6771 80.7391C86.2988 78.8202 87.88 76.0752 87.7281 72.4391C87.644 70.4352 87.0021 68.4491 86.1901 66.574C86.4282 66.2336 86.6667 65.8899 86.9059 65.5419C91.0389 59.5265 94.2448 52.9165 94.2448 52.9165C94.2448 52.9165 94.5469 54.9428 95.5366 58.294C96.0374 59.9903 97.0255 61.8405 97.9139 63.6554C94.0278 66.7991 91.6177 70.4518 90.7808 72.8483C89.2336 77.2801 90.4454 79.2883 92.7185 79.7454C93.7482 79.9527 95.2022 79.483 96.2962 79.0219C97.6573 78.5726 99.2929 77.8242 100.821 76.7063C103.442 74.7874 105.963 72.1003 105.811 68.4644C105.742 66.8091 105.291 65.1661 104.679 63.5877C107.973 62.2216 112.238 61.462 117.671 62.0935C129.325 63.4484 131.611 70.6929 131.174 73.725C130.737 76.7574 128.292 78.424 127.475 78.9275C126.658 79.4305 126.408 79.6052 126.477 79.9796C126.577 80.5236 126.954 80.5027 127.651 80.3858C128.611 80.2245 133.771 77.9194 133.992 72.3225C134.273 65.2168 127.434 57.4116 115.322 57.4759Z" fill="white"/>
</svg>
